<?xml version="1.0" standalone="no"?>
<!DOCTYPE svg PUBLIC "-//W3C//DTD SVG 20010904//EN"
 "http://www.w3.org/TR/2001/REC-SVG-20010904/DTD/svg10.dtd">
<svg version="1.0" xmlns="http://www.w3.org/2000/svg"
 width="300.000000pt" height="200.000000pt" viewBox="0 0 300.000000 200.000000"
 preserveAspectRatio="xMidYMid meet">
<metadata>
Created by potrace 1.10, written by Peter Selinger 2001-2011
</metadata>
<g transform="translate(0.000000,200.000000) scale(0.100000,-0.100000)"
fill="#000000" stroke="none">
<path d="M1766 1505 c-3 -8 -15 -15 -26 -15 -11 0 -20 -5 -20 -10 0 -15 -115
-130 -129 -130 -7 0 -10 -3 -8 -7 2 -5 -4 -16 -15 -25 -10 -10 -18 -15 -18
-11 0 4 -7 -3 -16 -15 -8 -12 -23 -22 -32 -22 -9 0 -69 52 -133 116 -98 98
-121 116 -151 118 -36 4 -58 -4 -61 -20 -1 -5 -5 -8 -9 -7 -12 4 -148 -149
-154 -173 -3 -13 -10 -21 -15 -18 -5 3 -6 -2 -3 -10 3 -9 1 -16 -5 -16 -6 0
-11 -8 -11 -18 0 -9 -9 -35 -21 -56 -16 -30 -22 -64 -26 -145 -9 -190 39 -322
167 -452 77 -78 141 -122 148 -100 2 6 8 9 13 5 5 -3 9 -1 9 5 0 5 9 12 19 16
11 3 23 15 26 26 4 10 11 17 16 14 5 -4 9 0 9 8 0 8 10 22 22 33 14 13 19 14
14 4 -5 -8 6 1 23 20 17 19 38 44 48 55 34 38 19 79 -41 116 -36 22 -61 12
-121 -50 -21 -23 -47 -41 -56 -41 -19 0 -63 54 -84 103 -7 17 -17 36 -21 40
-23 22 -30 211 -11 278 21 71 90 179 115 179 10 0 48 -30 83 -67 35 -37 66
-67 69 -67 6 1 39 -33 42 -43 5 -18 81 -73 101 -73 13 0 67 46 147 125 69 69
133 125 142 125 27 0 108 -123 115 -175 14 -104 14 -196 -1 -247 -20 -70 -89
-178 -114 -178 -10 0 -104 87 -220 203 -111 112 -204 202 -207 199 -3 -3 -5 1
-5 8 0 13 -75 87 -118 117 -35 24 -67 2 -103 -72 -37 -76 -49 -203 -23 -242 8
-13 14 -32 13 -41 -4 -24 37 -86 66 -102 22 -12 29 -11 52 6 15 11 35 32 46
46 17 23 18 30 6 64 -7 22 -14 45 -15 52 -4 20 43 -19 136 -113 216 -218 332
-330 343 -330 7 0 15 -3 18 -8 9 -12 95 51 151 112 51 55 122 174 130 216 1
11 8 23 13 27 6 4 10 64 10 145 -1 118 -4 147 -24 202 -41 117 -134 238 -235
305 -45 30 -52 31 -60 11z m-404 -162 l138 -138 139 139 140 139 55 -42 c140
-105 216 -261 216 -441 0 -179 -77 -337 -216 -441 l-56 -43 -271 272 c-149
150 -273 272 -275 272 -12 0 8 -135 25 -169 l20 -40 -33 -32 -32 -31 -16 24
c-66 101 -66 275 0 377 l16 24 289 -289 289 -289 45 45 c27 26 62 77 83 120
37 74 37 76 37 200 0 120 -1 128 -32 193 -18 37 -55 91 -82 120 l-51 54 -145
-146 -145 -146 -145 145 -145 144 -46 -44 c-26 -26 -61 -77 -82 -120 -37 -74
-37 -76 -37 -200 0 -120 1 -128 32 -193 18 -37 55 -91 83 -121 l50 -53 73 74
72 74 32 -33 33 -34 -100 -99 -99 -98 -55 42 c-140 105 -216 261 -216 441 0
177 73 329 208 436 32 24 59 44 62 44 3 0 67 -62 142 -137z"/>
<path d="M1741 1214 c-47 -39 -53 -55 -37 -108 15 -50 8 -58 -28 -31 -31 23
-59 18 -94 -18 -50 -52 -44 -67 70 -183 56 -57 110 -106 119 -109 65 -21 138
148 123 281 -4 30 -10 54 -14 54 -11 0 -8 34 4 42 6 5 0 8 -14 9 -14 0 -19 3
-12 6 16 6 -53 83 -74 83 -7 0 -26 -12 -43 -26z m90 -82 c16 -41 22 -79 22
-132 0 -76 -28 -175 -56 -199 -10 -8 -39 16 -117 94 l-105 105 33 32 33 33 60
-62 c34 -35 63 -63 66 -63 13 0 -6 133 -24 169 l-20 40 31 30 c37 37 47 31 77
-47z"/>
<path d="M42 708 c-6 -7 -11 -71 -12 -143 -3 -187 -6 -173 38 -178 l37 -4 -36
-1 c-28 -2 -38 -7 -42 -24 -3 -12 -2 -30 4 -40 7 -12 6 -25 -1 -39 -7 -12 -9
-32 -4 -47 4 -15 6 -31 5 -37 -6 -21 -3 -123 3 -143 8 -24 44 -30 64 -10 9 9
12 96 12 328 0 294 -1 318 -18 333 -22 20 -36 21 -50 5z m48 -48 c0 -21 -5
-30 -17 -31 -17 -1 -17 -2 0 -6 15 -4 17 -16 15 -93 -2 -74 -4 -87 -18 -83
-12 4 -11 1 2 -10 23 -19 23 -27 -2 -27 -11 0 -20 4 -20 9 0 5 -3 16 -6 25 -4
11 0 16 12 16 17 0 17 1 -1 13 -13 10 -15 16 -6 21 9 6 9 11 0 22 -9 11 -7 14
10 14 11 0 21 4 21 9 0 5 -10 7 -22 3 -14 -3 -19 -2 -14 6 4 7 14 12 22 12 8
0 14 4 14 9 0 5 -8 7 -17 5 -15 -4 -18 2 -18 30 0 28 4 36 18 36 10 0 16 4 12
10 -3 5 -11 7 -18 4 -9 -3 -12 4 -11 23 2 36 1 35 24 23 13 -7 20 -21 20 -40z
m-2 -366 c-1 -41 -4 -70 -8 -64 -6 9 -9 9 -14 1 -11 -17 -28 -2 -21 18 13 32
16 69 5 76 -21 13 -7 30 37 44 1 1 2 -33 1 -75z m2 -97 c0 -7 -6 -19 -12 -26
-7 -8 -8 -11 -2 -8 7 4 11 -7 11 -33 0 -24 -4 -37 -10 -33 -6 4 -7 1 -1 -8 4
-8 10 -22 11 -32 3 -15 -1 -17 -19 -11 -30 8 -36 16 -20 21 16 6 16 30 0 36
-8 4 -7 6 4 6 11 1 15 7 11 21 -3 11 -10 20 -15 20 -6 0 -6 6 1 14 6 8 11 18
10 22 -3 18 1 24 16 24 8 0 15 -6 15 -13z"/>
</g>
</svg>
