<?xml version="1.0" standalone="no"?>
<!DOCTYPE svg PUBLIC "-//W3C//DTD SVG 20010904//EN"
 "http://www.w3.org/TR/2001/REC-SVG-20010904/DTD/svg10.dtd">
<svg version="1.0" xmlns="http://www.w3.org/2000/svg"
 width="600.000000pt" height="360.000000pt" viewBox="0 0 600.000000 360.000000"
 preserveAspectRatio="xMidYMid meet">

<g transform="translate(0.000000,360.000000) scale(0.100000,-0.100000)"
fill="#000000" stroke="none">
<path d="M2306 2491 c-13 -20 4 -31 47 -31 52 0 113 -28 148 -66 15 -16 173
-281 352 -589 179 -308 332 -568 340 -579 13 -18 15 -17 34 10 10 16 152 257
314 537 l294 507 3 -467 c2 -314 -1 -483 -8 -512 -23 -93 -78 -133 -202 -146
-49 -5 -68 -11 -68 -21 0 -12 47 -14 300 -14 248 0 300 2 300 14 0 9 -24 17
-77 25 -110 16 -153 47 -181 130 -8 23 -12 190 -12 559 l-1 525 23 24 c33 36
71 53 136 61 41 5 57 11 57 22 0 13 -23 15 -153 13 -184 -2 -220 -14 -281 -97
-21 -28 -134 -217 -251 -419 l-214 -368 -30 51 c-17 28 -118 201 -225 386
-107 184 -209 352 -228 373 -49 58 -93 71 -263 78 -106 4 -149 3 -154 -6z"/>
<path d="M2770 2485 c0 -11 11 -15 40 -15 66 0 139 -20 172 -48 51 -43 68 -93
68 -207 0 -86 3 -105 23 -135 l22 -35 5 140 c5 125 8 145 30 185 31 56 89 87
178 96 42 5 62 11 62 20 0 12 -54 14 -300 14 -260 0 -300 -2 -300 -15z"/>
<path d="M1900 2475 c0 -11 11 -15 43 -15 52 0 140 -40 162 -73 14 -22 16 -79
13 -549 -3 -507 -4 -524 -24 -568 -35 -75 -81 -102 -191 -115 -44 -5 -63 -11
-63 -21 0 -12 49 -14 300 -14 238 0 300 3 300 13 0 8 -27 16 -79 23 -95 13
-143 40 -174 98 -22 41 -22 47 -25 536 -2 302 1 491 6 485 6 -6 146 -244 312
-530 166 -286 314 -536 329 -555 54 -68 82 -80 193 -80 l100 0 -19 33 c-11 17
-178 298 -371 622 -193 325 -366 610 -384 634 -18 25 -53 55 -77 68 -41 21
-57 23 -198 23 -129 0 -153 -2 -153 -15z"/>
</g>
</svg>
