<?xml version="1.0" standalone="no"?>
<!DOCTYPE svg PUBLIC "-//W3C//DTD SVG 20010904//EN"
 "http://www.w3.org/TR/2001/REC-SVG-20010904/DTD/svg10.dtd">
<svg version="1.0" xmlns="http://www.w3.org/2000/svg"
 width="300.000000pt" height="300.000000pt" viewBox="0 0 300.000000 300.000000"
 preserveAspectRatio="xMidYMid meet">
<metadata>
Created by potrace 1.10, written by Peter Selinger 2001-2011
</metadata>
<g transform="translate(0.000000,300.000000) scale(0.100000,-0.100000)"
fill="#000000" stroke="none">
<path d="M1203 1789 c-40 -15 -43 -37 -43 -296 0 -244 1 -248 23 -269 15 -15
28 -19 42 -14 40 15 44 31 46 183 0 81 4 147 9 147 4 0 20 -17 36 -37 15 -21
31 -40 35 -43 3 -3 14 -18 23 -35 17 -30 23 -39 100 -143 21 -29 51 -59 66
-67 26 -13 30 -13 54 10 14 13 26 27 26 31 0 15 -58 106 -164 254 -193 270
-214 294 -253 279z m64 -86 c23 -32 105 -146 182 -253 104 -145 137 -198 129
-207 -6 -7 -14 -10 -19 -7 -5 3 -75 98 -156 212 -80 114 -153 214 -160 222
-12 13 -14 -18 -12 -203 1 -204 -5 -261 -25 -228 -5 8 -10 446 -6 516 0 3 6 5
13 5 7 0 32 -26 54 -57z"/>
<path d="M1352 1777 c-12 -13 -22 -31 -22 -39 0 -20 60 -118 71 -118 5 0 8 -3
7 -7 -3 -9 52 -86 65 -91 4 -2 7 -10 7 -18 0 -8 7 -17 15 -20 8 -3 17 -14 20
-24 7 -22 62 -50 84 -43 19 7 46 34 85 86 16 20 32 37 37 37 5 0 9 -67 9 -149
0 -144 1 -151 22 -165 29 -21 51 -20 71 2 15 16 17 50 17 275 l0 256 -26 20
c-40 31 -72 8 -159 -116 -32 -46 -64 -83 -70 -83 -6 0 -28 23 -48 50 -20 28
-53 72 -73 99 -29 39 -68 71 -88 71 -1 0 -12 -10 -24 -23z m137 -147 c51 -71
94 -130 95 -130 1 0 45 59 96 130 61 84 100 130 110 128 13 -3 15 -36 15 -258
0 -240 -1 -255 -18 -255 -17 0 -18 13 -17 218 0 119 -1 217 -4 217 -2 0 -40
-52 -85 -115 -79 -112 -110 -137 -124 -101 -3 7 -48 72 -101 144 -53 72 -96
136 -96 142 0 5 8 10 18 10 11 0 51 -47 111 -130z"/>
</g>
</svg>
